<svg width="30" height="30" viewBox="0 0 30 30" fill="none" xmlns="http://www.w3.org/2000/svg">
<path d="M27.5547 28.9364C29.1249 28.9321 29.8231 26.9576 28.6054 25.9646L11.7981 12.375L1.2255 23.5777C-0.507822 25.7762 1.0608 29.0074 3.85773 29L27.5547 28.9364Z" fill="url(#paint0_linear_37_38)"/>
<path d="M27.5547 28.9364C29.1249 28.9321 29.8231 26.9576 28.6054 25.9646L11.7981 12.375L1.2255 23.5777C-0.507822 25.7762 1.0608 29.0074 3.85773 29L27.5547 28.9364Z" fill="url(#paint1_linear_37_38)" fill-opacity="0.2"/>
<path d="M2.44532 1.06367C0.874998 1.06788 0.176841 3.04243 1.39455 4.03551L18.0758 17.4508L28.7745 6.42234C30.5078 4.22379 28.9392 0.992496 26.1423 1.00001L2.44532 1.06367Z" fill="#0993E7"/>
<defs>
<linearGradient id="paint0_linear_37_38" x1="14.7914" y1="14.6004" x2="10.792" y2="28.9575" gradientUnits="userSpaceOnUse">
<stop stop-color="#0B527D"/>
<stop offset="1" stop-color="#0993E7"/>
</linearGradient>
<linearGradient id="paint1_linear_37_38" x1="12.024" y1="4.64684" x2="17.406" y2="16.8734" gradientUnits="userSpaceOnUse">
<stop/>
<stop offset="1" stop-opacity="0"/>
</linearGradient>
</defs>
</svg>
