<svg width="123" height="28" viewBox="0 0 123 28" fill="none" xmlns="http://www.w3.org/2000/svg">
<g clip-path="url(#clip0_1_2)">
<path d="M27.0547 27.9364C28.6249 27.9321 29.3231 25.9576 28.1054 24.9646L11.2981 11.375L0.7255 22.5777C-1.00782 24.7762 0.560795 28.0074 3.35773 28L27.0547 27.9364Z" fill="url(#paint0_linear_1_2)"/>
<path d="M27.0547 27.9364C28.6249 27.9321 29.3231 25.9576 28.1054 24.9646L11.2981 11.375L0.7255 22.5777C-1.00782 24.7762 0.560795 28.0074 3.35773 28L27.0547 27.9364Z" fill="url(#paint1_linear_1_2)" fill-opacity="0.2"/>
<path d="M1.94532 0.0636736C0.374998 0.0678819 -0.323159 2.04243 0.89455 3.03551L17.5758 16.4508L28.2745 5.42234C30.0078 3.22379 28.4392 -0.00750337 25.6423 1.31621e-05L1.94532 0.0636736Z" fill="#0993E7"/>
<path d="M52.7669 11.1386V10.9617H45.559V7.77581H57.68V10.9322L49.7366 20.2537V20.4307H58.2684V23.705H45V20.3717L52.7669 11.1386Z" fill="#1F1F1F"/>
<path d="M67.8598 20.7552C68.3894 20.7552 68.8405 20.7158 69.2131 20.6372V23.7345C68.5267 23.8328 67.8598 23.882 67.2126 23.882C65.8789 23.882 64.8393 23.7345 64.094 23.4395C63.3683 23.1445 62.8388 22.6234 62.5054 21.8761C62.1719 21.1288 62.0052 20.057 62.0052 18.6608V10.9322H59.8576V7.77581H62.0052V4H65.9769V7.77581H69.3602V10.9322H65.9769V18.3363C65.9769 19.0049 66.026 19.5064 66.124 19.8407C66.2221 20.175 66.3986 20.411 66.6536 20.5487C66.9282 20.6863 67.3302 20.7552 67.8598 20.7552Z" fill="#1F1F1F"/>
<path d="M80.9669 11.0206H80.5844C78.0347 11.0206 76.5343 12.1613 76.0831 14.4425V23.705H72.1114V7.77581H76.0831V10.6372C76.5343 9.43756 77.1521 8.6116 77.9366 8.15929C78.7211 7.70698 79.6626 7.48083 80.7609 7.48083H81.0845L80.9669 11.0206Z" fill="#1F1F1F"/>
<path d="M96.1326 12.6136V23.705H92.6022L92.2198 21.7581C91.8471 22.4071 91.1999 22.9479 90.2781 23.3805C89.3562 23.7935 88.2775 24 87.0419 24C85.2374 24 83.8743 23.5969 82.9525 22.7906C82.0503 21.9843 81.5992 20.7748 81.5992 19.1622C81.5992 17.353 82.1385 16.0649 83.2173 15.2979C84.296 14.5113 85.9141 14.118 88.0716 14.118H92.1904V13.5575C92.1904 12.8889 92.0923 12.3579 91.8962 11.9646C91.7196 11.5713 91.3764 11.2861 90.8665 11.1091C90.3565 10.9125 89.6308 10.8142 88.6894 10.8142C87.5714 10.8142 86.4437 10.9223 85.3061 11.1386V7.74631C86.5221 7.56932 87.797 7.48083 89.1307 7.48083C91.6608 7.48083 93.4554 7.91347 94.5145 8.77876C95.5933 9.62439 96.1326 10.9027 96.1326 12.6136ZM87.9539 20.9322C88.9738 20.9322 89.8564 20.7453 90.6017 20.3717C91.347 19.998 91.8766 19.4867 92.1904 18.8378V16.8614H88.6305C87.4734 16.8614 86.6594 17.0088 86.1887 17.3038C85.7376 17.5988 85.512 18.179 85.512 19.0442C85.512 19.6932 85.7082 20.175 86.1004 20.4897C86.4927 20.7847 87.1105 20.9322 87.9539 20.9322Z" fill="#1F1F1F"/>
<path d="M99.8745 15.7404C99.8745 13.6559 100.169 12.0138 100.757 10.8142C101.365 9.59489 102.228 8.73943 103.346 8.24779C104.484 7.73648 105.906 7.48083 107.612 7.48083C109.201 7.48083 110.574 7.65782 111.731 8.0118V11.3746C110.613 10.9617 109.397 10.7552 108.083 10.7552C107.063 10.7552 106.259 10.9027 105.67 11.1976C105.082 11.4926 104.641 12.0039 104.346 12.7316C104.072 13.4592 103.934 14.472 103.934 15.7699C103.934 17.0482 104.072 18.0511 104.346 18.7788C104.641 19.4867 105.092 19.9882 105.7 20.2832C106.308 20.5585 107.131 20.6962 108.171 20.6962C109.583 20.6962 110.809 20.4897 111.848 20.0767V23.41C111.378 23.5674 110.74 23.705 109.936 23.823C109.132 23.941 108.357 24 107.612 24C105.906 24 104.484 23.7542 103.346 23.2625C102.228 22.7512 101.365 21.8958 100.757 20.6962C100.169 19.4769 99.8745 17.825 99.8745 15.7404Z" fill="#1F1F1F"/>
<path d="M121.5 20.7552C122.029 20.7552 122.48 20.7158 122.853 20.6372V23.7345C122.166 23.8328 121.5 23.882 120.852 23.882C119.519 23.882 118.479 23.7345 117.734 23.4395C117.008 23.1445 116.479 22.6234 116.145 21.8761C115.812 21.1288 115.645 20.057 115.645 18.6608V10.9322H113.497V7.77581H115.645V4H119.617V7.77581H123V10.9322H119.617V18.3363C119.617 19.0049 119.666 19.5064 119.764 19.8407C119.862 20.175 120.038 20.411 120.293 20.5487C120.568 20.6863 120.97 20.7552 121.5 20.7552Z" fill="#1F1F1F"/>
</g>
<defs>
<linearGradient id="paint0_linear_1_2" x1="14.2914" y1="13.6004" x2="10.292" y2="27.9575" gradientUnits="userSpaceOnUse">
<stop stop-color="#0B527D"/>
<stop offset="1" stop-color="#0993E7"/>
</linearGradient>
<linearGradient id="paint1_linear_1_2" x1="11.524" y1="3.64684" x2="16.906" y2="15.8734" gradientUnits="userSpaceOnUse">
<stop/>
<stop offset="1" stop-opacity="0"/>
</linearGradient>
<clipPath id="clip0_1_2">
<rect width="123" height="28" fill="white"/>
</clipPath>
</defs>
</svg>
